<?xml version="1.0" standalone="no"?><svg xmlns="http://www.w3.org/2000/svg" viewBox="0 0 1440 320"><path fill="#a517ba" fill-opacity="1" d="M0,64L30,85.3C60,107,120,149,180,176C240,203,300,213,360,181.3C420,149,480,75,540,58.7C600,43,660,85,720,122.7C780,160,840,192,900,176C960,160,1020,96,1080,85.3C1140,75,1200,117,1260,149.3C1320,181,1380,203,1410,213.3L1440,224L1440,0L1410,0C1380,0,1320,0,1260,0C1200,0,1140,0,1080,0C1020,0,960,0,900,0C840,0,780,0,720,0C660,0,600,0,540,0C480,0,420,0,360,0C300,0,240,0,180,0C120,0,60,0,30,0L0,0Z"></path></svg>